<?xml version="1.0" encoding="UTF-8"?>
<svg id="_레이어_1" data-name="레이어 1" xmlns="http://www.w3.org/2000/svg" viewBox="0 0 256 256">
  <defs>
    <style>
      .cls-1 {
        fill: #111;
      }
    </style>
  </defs>
  <path class="cls-1" d="M144.99,103.39c-9.03-3.22-17.78-10.98-17.52-21.55,2.08-15.28,9.71-28.65,22.62-37.26,9.28-4.23,20.93-3.26,20.71,9.34-.68,13.41-29.74,141.21-44.7,130.65-2.48-1.42-3.29-4.64-1.79-7.06,19.01-38.36,30.15-81.75,38.79-123.61.09-1.87-.37-3.28-.76-3.66-.5-1.19-6.08-.56-9.31.75-2.95,1.46-6.46,4.89-9.26,8.08-12.74,15.03-18.51,31.7,1.21,44.33h0Z"/>
  <path class="cls-1" d="M71.97,125.14c53.26-10.17,106.79-17.25,161.29-15.58,4.43.16,7.9,3.89,7.73,8.33s-3.89,7.9-8.32,7.73c-26.29-2.3-53.05-2.12-79.77-.66-26.54,1.52-53.19,4.13-79.5,7.99-4.99.83-6.47-6.79-1.43-7.81h0Z"/>
  <path class="cls-1" d="M239.13,41.05c-11.91,39.61-32.12,98.79-40.81,138.49-.21,4.25-6.58,5.01-7.72.93-4.55-15.23-9.77-31.72-20.8-43.6-.67-.61.22-1.69.94-1.12,13.17,10.98,20.49,26.83,27.4,42.22,0,0-7.72.93-7.72.93,7.01-41.54,24.65-100.72,35.02-141.9,2.62-9.22,16.51-5.24,13.7,4.05h0Z"/>
  <path class="cls-1" d="M123.24,106.92l-3.28,13.95-.02.06-.09.18c-12.64,24.06-32.25,45.18-56.89,57.39-16.13,7.08-41.62,4.02-47.51-16.02-4.66-21.62,5.8-41.31,16.54-58.95,18.29-26.29,38.72-51.76,71.28-61.28,27.12-4.56,31.84,20.57,20.51,39.02-4.04,7.19-9.57,12.58-15.33,18.21-5.76,5.14-13.03,10.8-21.3,9.65-.48-.08-.81-.54-.73-1.02.07-.45.48-.76.92-.75,7.16-.34,12.38-6.39,16.88-11.84,4.34-5.77,8.89-12.08,11.27-18.24,14.66-40.83-31.96-15.51-44.8-.73-20.18,20.13-36.29,45.25-40.57,73.63-1.19,7.01-.37,10.7,3.11,14.32,16.38,13.23,39.33-1.39,53.53-12.65,15.51-11.93,27.92-27.85,36.49-44.9h0Z"/>
  <path class="cls-1" d="M207.46,207.73c-.28,0-.55-.03-.83-.09-11.56-2.45-94.59-.77-125.6.09-1.91.06-4.01-1.67-4.08-3.86-.06-2.19,1.67-4.01,3.86-4.08,4.59-.12,112.64-3.04,127.46.09,2.15.46,3.51,2.57,3.06,4.7-.4,1.87-2.05,3.15-3.87,3.15Z"/>
  <path class="cls-1" d="M93.7,224.93c-2.12,0-3.87-1.67-3.96-3.81-.09-2.19,1.62-4.03,3.81-4.12,3.2-.12,78.6-3.1,90.81-.81,2.15.4,3.58,2.46,3.18,4.62-.4,2.15-2.53,3.59-4.62,3.18-9.42-1.73-67.48.1-89.06.95h-.16Z"/>
</svg>