<?xml version="1.0" encoding="UTF-8"?>
<svg id="_레이어_1" data-name="레이어 1" xmlns="http://www.w3.org/2000/svg" viewBox="0 0 226.74 219.16">
  <defs>
    <style>
      .cls-1 {
        fill: #fff;
      }
    </style>
  </defs>
  <path class="cls-1" d="M129.85,72.4c-9.1-3.24-17.92-11.07-17.65-21.71,2.1-15.4,9.78-28.86,22.79-37.53,9.35-4.26,21.08-3.29,20.86,9.4-.68,13.51-29.96,142.25-45.03,131.62-2.5-1.43-3.32-4.67-1.8-7.12,19.15-38.64,30.38-82.36,39.08-124.53.09-1.88-.37-3.3-.77-3.69-.5-1.2-6.13-.56-9.38.75-2.98,1.47-6.5,4.92-9.33,8.14-12.84,15.14-18.65,31.93,1.21,44.66h0Z"/>
  <path class="cls-1" d="M124.29,93.44c30.85-9.57,62.04-16.42,94.82-14.87,4.47.26,7.88,4.09,7.62,8.55-.26,4.47-4.09,7.88-8.55,7.62-29.99-4.2-61.95-.16-91.64,6.37-4.9,1.28-7.09-6.09-2.25-7.67h0Z"/>
  <path class="cls-1" d="M224.69,9.59c-12,39.91-32.36,99.52-41.11,139.52-.22,4.29-6.62,5.05-7.78.93-4.59-15.34-9.84-31.95-20.96-43.92-.68-.61.22-1.7.94-1.13,13.27,11.06,20.64,27.03,27.6,42.53,0,0-7.78.94-7.78.94,7.06-41.85,24.83-101.46,35.28-142.95,2.64-9.29,16.63-5.28,13.8,4.08h0Z"/>
  <path class="cls-1" d="M145.4,119.48c-45.44-11.03-109.44,35.99-121.66,78.74-4.96,20.25,12.42,10.1,19.57.42,18.71-21.98,33.24-56.35,41.81-79.55,2.82-12.99,6.58-31.36,9.57-44.12,0,0,15.33,5.86,15.33,5.86-15.37,23.78-36.12,44.53-62.37,55.96-16.6,6.31-41.72,2.48-47.23-17.6C-3.55,82.04,21.51,48.62,45.87,23.49,60.21,11.21,81.05-5.07,101.86,1.52c14.87,5.51,11.17,25.52,5.26,35.51-3.92,7.32-9.23,12.85-14.69,18.43-5.64,5.24-12.52,11.16-20.85,10.28-.49-.06-.84-.51-.77-1,.06-.48.49-.81.96-.78,7.21-.04,12.91-5.93,17.6-11.36,23.04-25.22,22.35-60.69-17.93-33.54-27.44,21.66-53.62,52.48-58.8,87.86-.93,7.15.24,11.66,4.3,15.01,27.23,17.79,67.41-26.27,78.57-49.06,4.36-8.37,17.48-3.46,15.38,5.65-1.6,7.43-3.62,14.76-5.42,22.14,0,0-5.49,21.9-5.49,21.9-9.29,23.91-21.36,47.11-36.47,68.19-9.56,11.78-23.73,33.87-41.94,27.21-4.38-1.99-7.05-7.05-7.27-11.03,1.84-47.63,85.83-102.93,131.1-87.43h0Z"/>
  <path class="cls-1" d="M192.78,177.51c-.28,0-.55-.03-.84-.09-11.66-2.46-95.3-.77-126.54.09-2.33-.12-4.04-1.68-4.11-3.89-.06-2.21,1.68-4.04,3.89-4.11,4.62-.12,113.47-3.07,128.41.09,2.16.46,3.54,2.58,3.08,4.74-.4,1.88-2.06,3.17-3.9,3.17Z"/>
  <path class="cls-1" d="M78.18,194.84c-2.14,0-3.91-1.69-4-3.84-.09-2.2,1.63-4.06,3.84-4.15,3.23-.12,79.2-3.12,91.49-.82,2.17.4,3.61,2.48,3.2,4.65-.4,2.18-2.52,3.6-4.65,3.2-9.49-1.74-67.99.09-89.73.96h-.16Z"/>
</svg>